<svg width="47" height="20" viewBox="0 0 47 20" fill="none" xmlns="http://www.w3.org/2000/svg">
<path d="M9.18709 5.62V13.152L3.05509 5.62H2.10309V15H3.20909V7.552L9.34109 15H10.2931V5.62H9.18709ZM19.0678 11.374C18.9978 9.316 17.5418 7.93 15.6798 7.93C13.7758 7.93 12.1098 9.358 12.1098 11.57C12.1098 13.768 13.7758 15.182 15.6098 15.182C17.1638 15.182 18.3678 14.426 18.9138 12.984L17.9618 12.76C17.4718 13.866 16.5898 14.244 15.6098 14.244C14.4198 14.244 13.2438 13.32 13.1458 11.766H19.0678V11.374ZM15.6798 8.868C16.8418 8.868 17.7938 9.61 17.9898 10.968H13.1878C13.3978 9.61 14.5598 8.868 15.6798 8.868ZM26.8585 8.098H25.5705L23.4425 10.94L21.3145 8.098H20.0265L22.6585 11.598L20.0265 15H21.3145L23.4425 12.242L25.5705 15H26.8585L24.2265 11.598L26.8585 8.098ZM32.5162 13.754C32.1662 14.006 31.7322 14.174 31.3402 14.174C30.5702 14.174 30.0662 13.67 30.0662 12.774V8.994H32.5302V8.098H30.0662V5.9H28.9882V8.098H27.4902V8.994H28.9882V12.844C28.9882 14.37 29.8982 15.182 31.2702 15.182C31.8302 15.182 32.3062 15.028 32.8662 14.636L32.5162 13.754Z" fill="#146EB4"/>
<path d="M38.5831 14.2919C38.3309 14.0396 38.3079 13.6449 38.5143 13.3667L38.5831 13.2871L41.8698 10L38.5831 6.71294C38.3309 6.46069 38.3079 6.06596 38.5143 5.7878L38.5831 5.70811C38.8354 5.45586 39.2301 5.43292 39.5083 5.63931L39.5879 5.70811L43.3774 9.49758C43.6297 9.74983 43.6526 10.1446 43.4462 10.4227L43.3774 10.5024L39.5879 14.2919C39.3105 14.5694 38.8606 14.5694 38.5831 14.2919Z" fill="#146EB4"/>
</svg>
